<svg id="add_1_" data-name="add (1)" xmlns="http://www.w3.org/2000/svg" width="24" height="24" viewBox="0 0 24 24">
  <g id="Group_50561" data-name="Group 50561">
    <g id="Group_50560" data-name="Group 50560">
      <path id="Path_75828" data-name="Path 75828" d="M19.714,0H4.286A4.291,4.291,0,0,0,0,4.286V19.714A4.291,4.291,0,0,0,4.286,24H19.714A4.291,4.291,0,0,0,24,19.714V4.286A4.291,4.291,0,0,0,19.714,0Zm2.571,19.714a2.571,2.571,0,0,1-2.571,2.571H4.286a2.571,2.571,0,0,1-2.571-2.571V4.286A2.571,2.571,0,0,1,4.286,1.714H19.714a2.571,2.571,0,0,1,2.571,2.571Z" fill="#d0d0d0"/>
    </g>
  </g>
  <g id="Group_50563" data-name="Group 50563" transform="translate(6.857 6.857)">
    <g id="Group_50562" data-name="Group 50562">
      <path id="Path_75829" data-name="Path 75829" d="M145.962,140.819h-3.429V137.39a.857.857,0,0,0-1.714,0v3.429H137.39a.857.857,0,1,0,0,1.714h3.429v3.429a.857.857,0,1,0,1.714,0v-3.429h3.429a.857.857,0,1,0,0-1.714Z" transform="translate(-136.533 -136.533)" fill="#d0d0d0"/>
    </g>
  </g>
</svg>
