<?xml version="1.0" encoding="iso-8859-1"?>
<!-- Generator: Adobe Illustrator 19.0.0, SVG Export Plug-In . SVG Version: 6.00 Build 0)  -->
<svg version="1.1" id="Capa_1" xmlns="http://www.w3.org/2000/svg" xmlns:xlink="http://www.w3.org/1999/xlink" x="0px" y="0px"
	 viewBox="0 0 512 512" style="enable-background:new 0 0 512 512;" xml:space="preserve">
<g style="enable-background:new    ;">
	<g>
		<g>
			<path d="M470.848,116.736c-4.352-6.72-12.96-9.216-20.224-5.824c-7.232,3.392-10.88,11.616-8.512,19.232
				c4.448,14.368,6.688,29.536,6.688,45.024c0,48.48-22.784,93.12-62.432,122.432c-42.24,31.072-98.08,43.264-168.768,58.72
				c-44.256,9.632-94.4,20.576-150.432,38.24c-5.12,1.6-9.056,5.632-10.56,10.752c-1.536,5.088-0.352,10.624,3.04,14.752
				C108.32,478.496,179.872,512,255.936,512C397.12,512,512,397.184,512,256.064C512,206.624,497.76,158.464,470.848,116.736z
				 M255.936,480c-58.24,0-113.408-22.432-154.816-62.272c45.056-13.056,86.24-22.08,123.264-30.176
				c74.4-16.256,133.184-29.088,180.928-64.192c36.704-27.104,61.408-65.12,71.008-107.776c2.432,13.28,3.68,26.848,3.68,40.48
				C480,379.52,379.488,480,255.936,480z"/>
			<path d="M415.264,68.544c1.92-6.4-0.352-13.344-5.728-17.376C364.96,17.696,311.84,0,255.936,0C114.816,0,0,114.88,0,256.096
				c0,54.816,13.984,87.104,41.504,130.88c2.976,4.736,8.128,7.488,13.536,7.488c1.408,0,2.816-0.192,4.224-0.576
				C238.144,345.216,367.904,226.624,415.264,68.544z M32,256.096C32,132.544,132.448,32,255.936,32
				c45.152,0,88.224,13.184,125.248,38.24C335.52,208.736,220.256,313.44,62.336,359.776C41.824,325.568,32,299.232,32,256.096z"/>
		</g>
	</g>
</g>
<g>
</g>
<g>
</g>
<g>
</g>
<g>
</g>
<g>
</g>
<g>
</g>
<g>
</g>
<g>
</g>
<g>
</g>
<g>
</g>
<g>
</g>
<g>
</g>
<g>
</g>
<g>
</g>
<g>
</g>
</svg>
