<svg xmlns="http://www.w3.org/2000/svg" width="24" height="23.999" viewBox="0 0 24 23.999">
  <g id="chat_6_" data-name="chat (6)" transform="translate(0 -0.011)">
    <g id="object_6_" transform="translate(0 0.012)">
      <g id="Group_50565" data-name="Group 50565" transform="translate(0 0)">
        <path id="Path_75831" data-name="Path 75831" d="M12,24.01A12,12,0,1,1,21.9,18.8a23.343,23.343,0,0,0,1.823,3.8A.829.829,0,0,1,22.6,23.736c-.008,0-.848-.462-1.792-.915a10.864,10.864,0,0,0-2.112-.852A11.925,11.925,0,0,1,12,24.01ZM12,1.67a10.341,10.341,0,1,0,5.925,18.817,1.889,1.889,0,0,1,1.687.024c.39.133.876.333,1.448.6-.267-.552-.471-1.02-.608-1.395-.254-.692-.358-1.243-.044-1.68A10.342,10.342,0,0,0,12,1.67Z" transform="translate(0 -0.012)" fill="#d0d0d0"/>
      </g>
    </g>
  </g>
</svg>
