<svg xmlns="http://www.w3.org/2000/svg" width="24" height="25.602" viewBox="0 0 24 25.602">
  <g id="bubble-chat" transform="translate(-5.048 -3.25)">
    <path id="Path_75821" data-name="Path 75821" d="M23.568,3.25H10.529A5.487,5.487,0,0,0,5.048,8.731v9.18a5.485,5.485,0,0,0,5.469,5.481l.233,0v4.566a.89.89,0,0,0,1.537.612l4.9-5.182h6.376a5.487,5.487,0,0,0,5.481-5.481V8.731a5.486,5.486,0,0,0-5.48-5.481Zm3.7,14.661a3.7,3.7,0,0,1-3.7,3.7H16.809a.889.889,0,0,0-.647.278l-3.631,3.836V22.516a.891.891,0,0,0-.879-.891l-1.123-.014a3.7,3.7,0,0,1-3.7-3.7V8.731a3.7,3.7,0,0,1,3.7-3.7H23.568a3.7,3.7,0,0,1,3.7,3.7Z" fill="#d0d0d0"/>
    <path id="Path_75822" data-name="Path 75822" d="M29.877,18.9H21.64a.891.891,0,0,0,0,1.781h8.237a.891.891,0,0,0,0-1.781Z" transform="translate(-8.71 -8.683)" fill="#d0d0d0"/>
    <path id="Path_75823" data-name="Path 75823" d="M29.877,29.882H21.64a.891.891,0,0,0,0,1.781h8.237a.891.891,0,1,0,0-1.781Z" transform="translate(-8.71 -14.774)" fill="#d0d0d0"/>
  </g>
</svg>
