<svg xmlns="http://www.w3.org/2000/svg" width="24" height="26.57" viewBox="0 0 24 26.57">
  <g id="notification_3_" data-name="notification (3)" transform="translate(-17.958)">
    <g id="Group_50558" data-name="Group 50558" transform="translate(17.958 0)">
      <path id="Path_75819" data-name="Path 75819" d="M38.529,16.8V11.755a8.835,8.835,0,0,0-5.7-8.241,3,3,0,0,0,.06-.587,2.927,2.927,0,1,0-5.854,0,3.134,3.134,0,0,0,.056.57,8.564,8.564,0,0,0-5.7,8.074V16.8a.339.339,0,0,1-.339.339,3.074,3.074,0,0,0-3.077,2.708,3,3,0,0,0,2.987,3.291h5.168a3.855,3.855,0,0,0,7.663,0h5.168a3,3,0,0,0,2.987-3.291,3.078,3.078,0,0,0-3.077-2.708.337.337,0,0,1-.339-.339ZM29.958,1.714a1.214,1.214,0,0,1,1.213,1.213,1.048,1.048,0,0,1-.017.163,7.6,7.6,0,0,0-.883-.081,8.831,8.831,0,0,0-1.509.086,1.048,1.048,0,0,1-.017-.163,1.216,1.216,0,0,1,1.213-1.217Zm0,23.142a2.15,2.15,0,0,1-2.1-1.714h4.2A2.15,2.15,0,0,1,29.958,24.856Zm10.281-4.843a1.281,1.281,0,0,1-1.281,1.414h-18a1.288,1.288,0,0,1-1.281-1.414,1.347,1.347,0,0,1,1.371-1.157A2.056,2.056,0,0,0,23.1,16.8V11.571a6.86,6.86,0,0,1,6.857-6.857c.086,0,.167,0,.253,0a7.011,7.011,0,0,1,6.6,7.037V16.8a2.056,2.056,0,0,0,2.053,2.053A1.35,1.35,0,0,1,40.239,20.014Z" transform="translate(-17.958 0)" fill="#d0d0d0"/>
    </g>
  </g>
</svg>
