<svg id="user_20_" data-name="user (20)" xmlns="http://www.w3.org/2000/svg" width="24" height="24" viewBox="0 0 24 24">
  <g id="Group_50568" data-name="Group 50568" transform="translate(0 0)">
    <path id="Path_75836" data-name="Path 75836" d="M20.485,3.515A12,12,0,0,0,3.515,20.485,12,12,0,0,0,20.485,3.515ZM12,22.594a10.57,10.57,0,0,1-7.9-3.54,8.44,8.44,0,0,1,7.9-5.46,4.219,4.219,0,1,1,4.219-4.219A4.219,4.219,0,0,1,12,13.594a8.44,8.44,0,0,1,7.9,5.46A10.57,10.57,0,0,1,12,22.594Z" transform="translate(0 0)" fill="#815fff"/>
  </g>
</svg>
