<svg xmlns="http://www.w3.org/2000/svg" width="24" height="24" viewBox="0 0 24 24">
  <g id="search_7_" data-name="search (7)" transform="translate(0 0)">
    <g id="object_2_" transform="translate(0 0)">
      <g id="Group_50566" data-name="Group 50566" transform="translate(0)">
        <path id="Path_75834" data-name="Path 75834" d="M23.761,22.586,17.28,16.1a0,0,0,0,1,0,0h0a9.707,9.707,0,0,0,2.293-5.83A9.792,9.792,0,1,0,.007,9.422,9.719,9.719,0,0,0,10.273,19.572,9.708,9.708,0,0,0,16.1,17.279h0l6.482,6.482a.831.831,0,0,0,1.176-1.176ZM1.874,11.678a8.151,8.151,0,0,1,9.8-9.8A8.756,8.756,0,0,1,17.71,7.905a8.151,8.151,0,0,1-9.8,9.8A8.756,8.756,0,0,1,1.874,11.678Z" transform="translate(0 0)" fill="#d0d0d0"/>
      </g>
    </g>
  </g>
</svg>
